<svg id="Layer_1" data-name="Layer 1" xmlns="http://www.w3.org/2000/svg" xmlns:xlink="http://www.w3.org/1999/xlink" viewBox="0 0 176.95 157.99"><defs><style>.cls-1,.cls-168{fill:none;}.cls-2{fill:#95c7c5;}.cls-3{clip-path:url(#clip-path);}.cls-4{fill:#b67965;}.cls-5{fill:#fff;}.cls-6{fill:#2e353a;}.cls-7{fill:#db9c54;}.cls-8{fill:#919396;}.cls-9{fill:#a5a7aa;}.cls-10{fill:#16826c;}.cls-11{fill:#747478;}.cls-12{fill:#4e4e52;}.cls-13{fill:#6a6d71;}.cls-14{fill:#688b8f;}.cls-15{fill:#755355;}.cls-16{fill:#6e969b;}.cls-17{fill:#717276;}.cls-18{fill:#6c4f52;}.cls-19{fill:#514d4f;}.cls-20{fill:#626365;}.cls-21{fill:#71696c;}.cls-22{fill:#707376;}.cls-23{fill:#7c7e81;}.cls-24{fill:#7e6569;}.cls-25{fill:#5d4f53;}.cls-26{fill:#677170;}.cls-27{fill:#906b6e;}.cls-28{fill:#747879;}.cls-29{fill:#63696a;}.cls-30{fill:#6d6c6f;}.cls-31{fill:#747577;}.cls-32{fill:#6a7274;}.cls-33{fill:#694f50;}.cls-34{fill:#654e50;}.cls-35{fill:#795558;}.cls-36{fill:#6d4b50;}.cls-37{fill:#44504e;}.cls-38{fill:#876064;}.cls-39{fill:#4a4a4f;}.cls-40{fill:#734f54;}.cls-41{fill:#57575a;}.cls-42{fill:#5b5557;}.cls-43{fill:#535456;}.cls-44{fill:#484a4d;}.cls-45{fill:#4d5858;}.cls-46{fill:#4a4e4d;}.cls-47{fill:#d7e3e6;}.cls-48{fill:#07eab9;}.cls-49{fill:#57595d;}.cls-50{fill:#6e7478;}.cls-51{fill:#b3898c;}.cls-52{fill:#5d4c4f;}.cls-53{fill:#634b4d;}.cls-54{fill:#454d50;}.cls-55{fill:#605256;}.cls-56{fill:#634a4e;}.cls-57{fill:#514f52;}.cls-58{fill:#dce5e8;}.cls-59{fill:#1d6353;}.cls-60{fill:#156955;}.cls-61{fill:#0d7e65;}.cls-62{fill:#33514c;}.cls-63{fill:#277a67;}.cls-64{fill:#217661;}.cls-65{fill:#1a836e;}.cls-66{fill:#126750;}.cls-67{fill:#246858;}.cls-68{fill:#205c4c;}.cls-69{fill:#177764;}.cls-70{fill:#1a8972;}.cls-71{fill:#09f2c1;}.cls-72{fill:#1a6251;}.cls-73{fill:#494c4f;}.cls-74{fill:#6b8c8f;}.cls-75{fill:#31b290;}.cls-76{fill:#0d6c54;}.cls-77{fill:#787174;}.cls-78{fill:#1f7d66;}.cls-79{fill:#706f71;}.cls-80{fill:#6f6869;}.cls-81{fill:#726e70;}.cls-82{fill:#137f68;}.cls-83{fill:#807a7e;}.cls-84{fill:#6d6e71;}.cls-85{fill:#197a66;}.cls-86{fill:#7c7c7e;}.cls-87{fill:#757577;}.cls-88{fill:#747878;}.cls-89{fill:#676669;}.cls-90{fill:#238270;}.cls-91{fill:#737779;}.cls-92{fill:#575759;}.cls-93{fill:#717e7d;}.cls-94{fill:#9bd9d3;}.cls-95{fill:#878286;}.cls-96{fill:#71817f;}.cls-97{fill:#656365;}.cls-98{fill:#5f5f60;}.cls-99{fill:#b8dbd3;}.cls-100{fill:#66575b;}.cls-101{fill:#587b75;}.cls-102{fill:#7fded1;}.cls-103{fill:#d0e0e2;}.cls-104{fill:#cdd9dc;}.cls-105{fill:#15836b;}.cls-106{fill:#0a8267;}.cls-107{fill:#0f866b;}.cls-108{fill:#14795f;}.cls-109{fill:#0b8a6f;}.cls-110{fill:#348075;}.cls-111{fill:#1c806c;}.cls-112{fill:#118f74;}.cls-113{fill:#0d9578;}.cls-114{fill:#666564;}.cls-115{fill:#0b7f65;}.cls-116{fill:#1a806b;}.cls-117{fill:#106253;}.cls-118{fill:#9ad4cc;}.cls-119{fill:#7ef0e5;}.cls-120{fill:#95cdc4;}.cls-121{fill:#0b735f;}.cls-122{fill:#a7d6d2;}.cls-123{fill:#0b735b;}.cls-124{fill:#9ef1e7;}.cls-125{fill:#088f73;}.cls-126{fill:#0e9073;}.cls-127{fill:#207666;}.cls-128{fill:#208670;}.cls-129{fill:#0c715c;}.cls-130{fill:#565d5d;}.cls-131{fill:#bbc5c5;}.cls-132{fill:#2c786c;}.cls-133{fill:#8ecfc5;}.cls-134{fill:#3f5d59;}.cls-135{fill:#068e72;}.cls-136{fill:#159b7e;}.cls-137{fill:#1f8e79;}.cls-138{fill:#1c7c66;}.cls-139{fill:#157f68;}.cls-140{fill:#12846d;}.cls-141{fill:#267f73;}.cls-142{fill:#6b8083;}.cls-143{fill:#606665;}.cls-144{fill:#c0e4e1;}.cls-145{fill:#89daca;}.cls-146{fill:#bfede5;}.cls-147{fill:#a1f1df;}.cls-148{fill:#b5e8e1;}.cls-149{fill:#1cdeb9;}.cls-150{fill:#7c7b7c;}.cls-151{fill:#605e5e;}.cls-152{fill:#b6e4dd;}.cls-153{fill:#4d5a5d;}.cls-154{fill:#30786c;}.cls-155{fill:#36746c;}.cls-156{fill:#527776;}.cls-157{fill:#19a282;}.cls-158{fill:#548477;}.cls-159{fill:#10856a;}.cls-160{fill:#5b6a64;}.cls-161{fill:#749b8e;}.cls-162{fill:#457c6d;}.cls-163{fill:#2a5e52;}.cls-164{fill:#17ad8a;}.cls-165{fill:#089172;}.cls-166{fill:#166d5b;}.cls-167{fill:#353535;}.cls-168{stroke:#353535;stroke-miterlimit:10;stroke-width:0.5px;}</style><clipPath id="clip-path"><path class="cls-1" d="M173,78.18c0,42.35-34.31,77.48-76.65,76.72-40-.71-76.71-34.29-76.73-76.64A76.69,76.69,0,1,1,173,78.18Z"/></clipPath></defs><circle class="cls-2" cx="97.4" cy="78.19" r="76.69"/><g class="cls-3"><polygon class="cls-4" points="80.69 104.88 76.07 121.95 60.93 111.02 62.86 98.43 80.69 104.88"/><path class="cls-5" d="M159.32,94.27c-2.36-8.6-10.27-28.09-20.74-34.71-3-1.92-18.85-3.77-25.65-3.55-4.66.14-31.45,6.23-39.7,14.42-7,6.94-12.72,30.74-12.72,30.74l20.18,3.71.66-4,10.21,33.34,50.4-.32-3.15-30.79C147,102.73,161.17,101,159.32,94.27Z"/><path class="cls-4" d="M115.43,56a44.89,44.89,0,0,0-4.85.07l-4-6.51a2.73,2.73,0,0,1-3-2.22c-.55-2.5-2-5.58-5-4.11s-2,0-2,0S95.49,36.66,92,36.89s-11.14.31-11.13,6.24c0,0,.16,12.15,5.83,14.39a4.81,4.81,0,0,0,2.38.24c1.45-.17,4.75-.28,5.33,2.25"/><path class="cls-6" d="M98.2,46.17l.51-2.73a1,1,0,0,1,1.24-.3,2.82,2.82,0,0,1,1.85,1.61,6,6,0,0,1,.33,1.68c-.2,1.92,2.61,3.62,3.68,4.48,1.88,1.53,2.87-1.51,1.61-3.76s-.72-13.72-7.06-14.23-10.19-5.26-17.94-1.27c-4,2.05-12,3.09-11.07,4.34a21.18,21.18,0,0,0,5.73,4.72c2.71,1.32,4.11,2.71,12,.15,2.42-.79,4.76-2.83,5.18-.42C94.89,44,98.2,46.17,98.2,46.17Z"/><path class="cls-7" d="M155.62,131.19s13.41,11.53,9.34,28c-4.94,20-53.95,18.14-62.25,18.15L72.17,245.64l-26.41-4.9s2.7-86.65,11.24-97c5.77-7,17.2-8.16,17.2-8.16l42.23-1.3Z"/><rect class="cls-8" x="-6.29" y="133.92" width="133.13" height="3.1"/><polyline class="cls-9" points="64 96.61 1.87 96.21 20.5 134.18 84.06 133.99"/><path class="cls-1" d="M85.46,46.2s-.82,2.48-1.33,4.29,2.4.74,2.4.74"/></g><polyline class="cls-9" points="64.22 95.87 2.08 95.44 20.7 133.43 83.92 133.72"/><path class="cls-4" d="M158.13,98.47s12.52,26.2,7.14,30.16-63.77,8.08-76.39,2.83l-5.38,1.28S79,124.82,79,124.18c0-1.33,7-4.05,12.68-3.05s8.19,4.57,14.45,2.69c19.8-5.94,33.39-4.53,34.8-6.22s-4.24-15.28-4.24-15.28S149.08,103.57,158.13,98.47Z"/><path class="cls-10" d="M122.15,29.17c0,.37-.06.75-.11,1.12a1.27,1.27,0,0,1-1.38,1.24c-1.38,0-2.76,0-4.14,0a1.23,1.23,0,0,1-1.33-1.05c-.39-1.55,0-3.12-.1-4.68,0-.34.31-.53.64-.56.56,0,1.12,0,1.69-.06a.42.42,0,0,1,.43.25,2,2,0,0,1,.11.91c-.11,2,0,2.05,2,2.11a4.55,4.55,0,0,1,2,.25A.42.42,0,0,1,122.15,29.17Z"/><path class="cls-10" d="M145.61,28.65c-.05,2.64-.05,2.62-2.75,2.41-.88-.07-1.76,0-2.63,0s-1.42-.44-1.4-1.4,0-1.64,0-2.45c.11-2.14.13-2.14,2.32-2.08a.41.41,0,0,1,.46.24c0,.25,0-.08.07.17.41,2.38.41,2.38,2.81,2.57a2.51,2.51,0,0,1,.72.16A.76.76,0,0,1,145.61,28.65Z"/><path class="cls-10" d="M121.89,17.63c0,.06,0,.12,0,.18-.07,2.27-.07,2.24-2.37,2.11-1.24-.08-2.49-.11-3.73-.07-1,0-1.14-.47-1.13-1.27,0-1.12,0-2.24-.07-3.36,0-1.38,0-1.38,1.47-1.46l.75,0a.86.86,0,0,1,.35.38c.36.94-.13,2.06.64,2.91,1.21.32,2.48-.07,3.69.28A1,1,0,0,1,121.89,17.63Z"/><path class="cls-10" d="M146.39,17.27c-.22,2.47-.41,2.66-2.86,2.17a11.2,11.2,0,0,0-3.15-.3c-.88.07-1.25-.36-1.24-1.22,0-1.06,0-2.12,0-3.18,0-1.25,0-1.25,1.38-1.37l.75-.06a.78.78,0,0,1,.38.36,1.18,1.18,0,0,1,.11.35c.29,2.31.29,2.31,2.75,2.39a3.45,3.45,0,0,1,1.53.46A1,1,0,0,1,146.39,17.27Z"/><path class="cls-10" d="M146.75,42.27c-.33,2.53-.33,2.53-3,2.37-.25,0-.5-.06-.75-.06-2.39,0-2.39,0-2.39-2.47,0-.82,0-1.63,0-2.45,0-1.44,0-1.45,1.45-1.62.25,0,.5,0,.75,0l.21.17c.56,1,.07,2.14.49,3.15.84.91,2,0,2.93.55A.51.51,0,0,1,146.75,42.27Z"/><path class="cls-10" d="M134.2,29.26c0,.44,0,.88-.06,1.31a1,1,0,0,1-1.12,1c-1.44,0-2.89,0-4.33,0-.87,0-1.28-.31-1.28-1.19,0-1.2,0-2.39-.08-3.58,0-.8.12-1.36,1.08-1.36a7.16,7.16,0,0,0,1.11-.19.61.61,0,0,1,.44.37c.53,2.91.53,2.91,3.5,3.3a1.53,1.53,0,0,1,.52.18A2.09,2.09,0,0,1,134.2,29.26Z"/><path class="cls-10" d="M134.59,17c.14,2.57,0,2.74-2.48,2.33a12.37,12.37,0,0,0-3.33,0c-1.08.11-1.38-.13-1.31-1.21.07-1.31-.52-2.69.35-3.93a1.76,1.76,0,0,1,1.82-.18c.3,2.23,1.79,2.56,3.67,2.33a1.8,1.8,0,0,1,.9.18A.69.69,0,0,1,134.59,17Z"/><path class="cls-10" d="M122.05,43c0,.37,0,.75,0,1.12,0,.81-.46,1.1-1.2,1.1h-4.7c0-1.76,0-3.38,0-5s0-1.51,1.55-1.6h.56a.84.84,0,0,1,.43.44,4.6,4.6,0,0,1-.24,3.43,9.37,9.37,0,0,1,3.15.08A1,1,0,0,1,122.05,43Z"/><path class="cls-10" d="M130.82,44.62c-2.94.25-3,.19-3-2.69,0-.5,0-1,0-1.51,0-2,.11-2,2.16-2.19a.91.91,0,0,1,.38.42,10.63,10.63,0,0,1,.19,2.52,2,2,0,0,0,.4,1.27A1.85,1.85,0,0,1,130.82,44.62Z"/><path class="cls-10" d="M134.6,42.57c0,.36,0,.72.05,1.08,0,.79-.36,1.11-1.11,1.07l-2-.12c-.49-.76-.63-1.65.12-2.19A2.2,2.2,0,0,1,134.6,42.57Z"/><path class="cls-11" d="M124,23c.06,0,.15.05.16.09a10.52,10.52,0,0,1-.13,5.54,1,1,0,0,1-.69-.61c-.51-1.12.32-2.66-.73-3.48s-2.27-.2-3.42-.35a2.21,2.21,0,0,1-1.21-.4.42.42,0,0,1,0-.58C120,22.91,122,23.29,124,23Z"/><path class="cls-12" d="M120.22,11.52c1.36-.48,2.68.05,4,.08a24.21,24.21,0,0,0-.16,4.39c0,1.63,0,1.63-1.63,1.64h-.57a.8.8,0,0,1-.17-.15.51.51,0,0,1,.17-.71c1.85-.51,1.21-2,1.22-3.22s-1.1-1-1.9-1.15a1.87,1.87,0,0,1-1-.38A.42.42,0,0,1,120.22,11.52Z"/><path class="cls-13" d="M124.42,36.4c0,1.75-.06,3.51-.1,5.26a1,1,0,0,1-.3.83c-.53-.45-.55-1.13-.77-1.72a10,10,0,0,1,.07-3.92A.77.77,0,0,1,124.42,36.4Z"/><path class="cls-14" d="M124.42,36.4c-.31.07-.63.13-.79.46-1.39.85-2.85.56-4.31.29a1,1,0,0,1-.63-.77A14.54,14.54,0,0,1,124.42,36.4Z"/><path class="cls-15" d="M142.85,38c0-.6.05-1.19.07-1.79a.76.76,0,0,1,.39-.47c1.13.05,2.28-.29,3.35.32a.39.39,0,0,1,0,.49c-.92.62-2.39.13-2.95,1.48a.78.78,0,0,1-.79.09Z"/><path class="cls-16" d="M130.8,36a10.8,10.8,0,0,1,5.27,0,.88.88,0,0,1-.56.73,8.74,8.74,0,0,1-4.13,0A.9.9,0,0,1,130.8,36Z"/><path class="cls-10" d="M134.6,42.57c-.31,0-.62-.06-.93-.07-2.07,0-2.07,0-2.12,2.1l-.73,0c-.17-.7.32-1.52-.39-2.13a.37.37,0,0,1,.09-.55,7.46,7.46,0,0,1,3.81-.21c.31.11.6.25.64.64Z"/><path class="cls-17" d="M148.13,36.18c.25,0,.58.13.61.36.2,1.88.52,3.76-.22,5.61a1,1,0,0,1-.62-.54,2.7,2.7,0,0,1,0-1.64,3,3,0,0,0-1-3.32C147.14,36,147.77,36.44,148.13,36.18Z"/><path class="cls-18" d="M129.63,13.46a.4.4,0,0,0,0-.37.3.3,0,0,1,0-.38l.07-.66a.86.86,0,0,1,.4-.44h2.23c.19.15.48.22.45.55-.45.84-1.78.45-2.09,1.48a.92.92,0,0,1-.61.42,1,1,0,0,1-.48-.13A.39.39,0,0,1,129.63,13.46Z"/><path class="cls-19" d="M141.16,25.11c.31-2.52.36-2.58,2.94-2.31a18.26,18.26,0,0,1,2.17.47.38.38,0,0,1,0,.49,2.43,2.43,0,0,1-2,.09,1.82,1.82,0,0,0-2.37,1.21.68.68,0,0,1-.5.18Z"/><path class="cls-20" d="M136.81,14.29a5.15,5.15,0,0,0,0,.56c.21,2.36.1,2.47-2.24,2.15a.39.39,0,0,1-.17-.14.61.61,0,0,1,.11-.47,1.66,1.66,0,0,0,1.32-1.69,1.11,1.11,0,0,1,.52-.57A.36.36,0,0,1,136.81,14.29Z"/><path class="cls-21" d="M124,23c-.65.57-1.43.28-2.15.3-1.3.05-2.61,0-3.91,0a.22.22,0,0,1-.37,0c.2-.43.61-.38,1-.37C120.36,22.89,122.18,22.92,124,23Z"/><path class="cls-22" d="M148.25,11.51c.51.74.24,1.55.24,2.34a.44.44,0,0,1-.47.05c-.61-.63-.9-1.58-1.82-1.92a.58.58,0,0,1,.09-.51,1.7,1.7,0,0,1,.55-.07A4.19,4.19,0,0,1,148.25,11.51Z"/><path class="cls-23" d="M136.1,25.9a3,3,0,0,1,0,3.05,1,1,0,0,1-.67-.58,3,3,0,0,1,.14-2.4A.38.38,0,0,1,136.1,25.9Z"/><path class="cls-24" d="M133.27,23.24c.71,0,1.47-.21,2.07.4a.35.35,0,0,1-.15.53,8.38,8.38,0,0,1-4.43-.48.46.46,0,0,1,.18-.57A6.3,6.3,0,0,1,133.27,23.24Z"/><path class="cls-25" d="M147.73,27.05c.41,1.74-.16,2-2.12,1.6a.67.67,0,0,1-.2-.12.5.5,0,0,1,.08-.46c.6-.36,1.37-.41,1.81-1.05A.33.33,0,0,1,147.73,27.05Z"/><path class="cls-26" d="M118.69,36.38l.47.52a1.41,1.41,0,0,1,.08,1.75.63.63,0,0,1-.84.11.61.61,0,0,1-.15-.17C118.56,37.88,118.07,37,118.69,36.38Z"/><path class="cls-27" d="M141.69,11.19a6.18,6.18,0,0,1,4.24,0,1.18,1.18,0,0,1-.51.38,8.31,8.31,0,0,1-3.22,0A1.08,1.08,0,0,1,141.69,11.19Z"/><path class="cls-28" d="M141.69,11.19l.42,0a1.55,1.55,0,0,1,.32.44,1.91,1.91,0,0,1-.11,1.35c-.22.33-.47.58-.91.47a.4.4,0,0,1-.14-.18C141.55,12.63,141.05,11.8,141.69,11.19Z"/><path class="cls-29" d="M116.79,13.72c.17-.71-.35-1.55.44-2.13.22.17.5.27.63.54a1.77,1.77,0,0,1-.13,1.64.54.54,0,0,1-.76.08A.2.2,0,0,1,116.79,13.72Z"/><path class="cls-30" d="M147.73,27.05h-.32a2.81,2.81,0,0,1-.54-2.93.37.37,0,0,1,.54-.09A5.08,5.08,0,0,1,147.73,27.05Z"/><path class="cls-31" d="M136.81,37.58v1.91a.51.51,0,0,1-.52,0,2.22,2.22,0,0,1-.52-2.32,1.14,1.14,0,0,1,.31-.44.58.58,0,0,1,.49.1C136.66,37.09,136.62,37.37,136.81,37.58Z"/><path class="cls-32" d="M130.8,36l.37.42a2.27,2.27,0,0,1-.28,1.88.6.6,0,0,1-.77.06.36.36,0,0,1-.14-.16C130.18,37.47,129.89,36.53,130.8,36Z"/><path class="cls-33" d="M135.67,28.51l.42.44c-.56.54-1.28.08-1.89.31a.46.46,0,0,1-.14-.17c-.32-.21-.31-.45-.05-.71A1.38,1.38,0,0,1,135.67,28.51Z"/><path class="cls-34" d="M123.68,28.18l.35.4c-.42.86-1.2.55-1.88.59A1.84,1.84,0,0,1,122,29a.68.68,0,0,1,.16-.49A1.84,1.84,0,0,1,123.68,28.18Z"/><path class="cls-35" d="M135,42.37l-.47-.23a.57.57,0,0,1,.14-.5,1.77,1.77,0,0,1,1.61-.18.8.8,0,0,1,.47.65C136.2,42.66,135.56,42.34,135,42.37Z"/><path class="cls-36" d="M148.12,41.72c.14.14.27.28.4.43-.56.44-1.17.19-1.77.12a1.24,1.24,0,0,1-.22-.18.65.65,0,0,1,.24-.5A1.1,1.1,0,0,1,148.12,41.72Z"/><path class="cls-37" d="M130.72,23.33a1.09,1.09,0,0,1,.1.25,7.26,7.26,0,0,1-.68,1.91.47.47,0,0,1-.48.07,3.65,3.65,0,0,1-.14-.35c.3-.63-.21-1.43.43-2C130.23,23.1,130.5,23,130.72,23.33Z"/><path class="cls-38" d="M130.72,23.33l-.77-.11a4,4,0,0,1,3.32,0Z"/><path class="cls-39" d="M117.65,12l-.42-.4a9.67,9.67,0,0,1,3-.07l0,.37A1.88,1.88,0,0,1,117.65,12Z"/><path class="cls-40" d="M134.94,11.59c.57-.15,1,.33,1.48.38a.3.3,0,0,1,.05.49,1.52,1.52,0,0,1-.53.25c-.67.06-1.37.18-1.81-.53C134.15,11.64,134.74,11.88,134.94,11.59Z"/><path class="cls-41" d="M123.69,41c.47.42.24,1,.33,1.49-.16.35-.45.36-.77.31s-.46-.16-.48-.46A2.39,2.39,0,0,1,123.69,41Z"/><path class="cls-42" d="M135.33,24c0-.12,0-.23,0-.34.56-.05.78.28.79.78s0,1,0,1.48a1.67,1.67,0,0,0-.32,0C135.11,25.37,135.23,24.67,135.33,24Z"/><path class="cls-43" d="M136.72,42.11l-.3-.45a1.59,1.59,0,0,1,.05-2.18h.34A6,6,0,0,1,136.72,42.11Z"/><path class="cls-44" d="M134.94,11.59c-.14.31-.44.36-.73.43a1.11,1.11,0,0,1-1.49,0l-.38-.42A5.71,5.71,0,0,1,134.94,11.59Z"/><path class="cls-45" d="M148.13,17.18l-1.74.09a.29.29,0,0,1-.14-.15.5.5,0,0,1,.06-.7,1.59,1.59,0,0,1,1.51.13C148.05,16.7,148.25,16.86,148.13,17.18Z"/><path class="cls-46" d="M117.57,23.25a2.22,2.22,0,0,0,.37,0l.09.43a1.07,1.07,0,0,1,.07,1.37.59.59,0,0,1-.53.2l-.15-.1C117.71,24.56,117.23,23.87,117.57,23.25Z"/><path class="cls-47" d="M136.41,12.35V12c.78.67.32,1.54.39,2.32l-.3-.13A1.26,1.26,0,0,1,136.41,12.35Z"/><path class="cls-48" d="M129.63,14.22h-1.81l.35-.36a1.35,1.35,0,0,1,1.49,0l.13.09v.19Z"/><path class="cls-49" d="M148.14,13.84h.35a4.9,4.9,0,0,1,0,1.87.35.35,0,0,1-.52-.14A1.45,1.45,0,0,1,148.14,13.84Z"/><path class="cls-50" d="M148.17,15.73h.32c0,.51.34,1.11-.36,1.46l-.43-.4A.92.92,0,0,1,148.17,15.73Z"/><path class="cls-51" d="M148.25,11.51l-1.66,0c-.09-.07-.11-.15-.07-.21s.07-.09.1-.09A2,2,0,0,1,148.25,11.51Z"/><path class="cls-47" d="M129.66,13.85l-1.49,0c.36-.58,1-.34,1.46-.41Z"/><path class="cls-52" d="M147.41,24h-.36a.71.71,0,0,1-.77-.42c0-.1,0-.21,0-.32C146.8,23.29,147.5,23.06,147.41,24Z"/><path class="cls-53" d="M148.13,36.18c-.33.34-.8.21-1.18.34-.15,0-.25,0-.31-.13s0-.23,0-.34Z"/><path class="cls-54" d="M122.81,42.44l.44.36-1.2.16-.33-.11c-.07-.32.11-.47.37-.58A.76.76,0,0,1,122.81,42.44Z"/><path class="cls-55" d="M136.47,36.84l-.32,0a.4.4,0,0,1-.41-.37l.33-.42.38.17A.39.39,0,0,1,136.47,36.84Z"/><path class="cls-56" d="M146.62,11.25a.4.4,0,0,1,0,.3h-.32a.56.56,0,0,1-.41.23.73.73,0,0,1-.44-.21c-.06-.18,0-.3.18-.35a.76.76,0,0,0,.33-.05Z"/><path class="cls-31" d="M136.47,36.84l0-.64c.35.1.4.35.36.65s-.23.15-.34,0Z"/><path class="cls-57" d="M136.46,36.84h.34v.73C136.5,37.43,136.48,37.13,136.46,36.84Z"/><path class="cls-58" d="M143.31,35.73l-.39.47A.52.52,0,0,1,143.31,35.73Z"/><path class="cls-47" d="M129.64,12.71v.38c0-.09-.09-.18-.12-.27S129.59,12.75,129.64,12.71Z"/><path class="cls-47" d="M130.11,11.61l-.4.44A.52.52,0,0,1,130.11,11.61Z"/><path class="cls-59" d="M117.57,25.28l.45-.19.19.21a1.5,1.5,0,0,1,.21.7c-.07,1.5.59,2.2,2.12,2.07a2.36,2.36,0,0,1,1.44.29l.18.22L122,29c-.94,0-1.88.05-2.82,0-1.5,0-1.85-.37-1.82-1.84A16.87,16.87,0,0,1,117.57,25.28Z"/><path class="cls-60" d="M145.57,28.07c0,.16-.1.31-.16.46l-3.18,0a.8.8,0,0,1-.92-.91c0-.81,0-1.62.07-2.42a3.9,3.9,0,0,1,.35-.19l.2.17a1.22,1.22,0,0,1,.23.7c-.09,1.52.72,1.94,2.08,1.73a2.91,2.91,0,0,1,1.1,0A.33.33,0,0,1,145.57,28.07Z"/><path class="cls-61" d="M121.82,17c0,.16-.07.32-.1.48-1.49.05-3,.41-4.45-.25a1.7,1.7,0,0,1,.92-.7,7,7,0,0,1,3.24,0A.68.68,0,0,1,121.82,17Z"/><path class="cls-62" d="M118,16.89a.79.79,0,0,1-.69.34,8.56,8.56,0,0,1-.3-3.38l.64-.07.21.21A5,5,0,0,1,118,16.89Z"/><path class="cls-63" d="M141.41,13.49l.65-.43.21.15c.57.75-.09,2,1.11,2.51a2,2,0,0,0,1.11.14c.34,0,.64.09.75.46s-.27.36-.46.5c-.69,0-1.37,0-2.05,0-1,.09-1.36-.41-1.35-1.31C141.38,14.85,141.4,14.17,141.41,13.49Z"/><path class="cls-64" d="M144.78,16.82l.48-.42a.78.78,0,0,1,.69-.15.5.5,0,0,1,.34.32c0,.19,0,.37,0,.55C145.71,17.25,145.27,16.91,144.78,16.82Z"/><path class="cls-65" d="M143,38.11l.6-.18a1,1,0,0,1,.42.5,4.75,4.75,0,0,1-.18,3.26.42.42,0,0,1-.59.07C142.59,40.58,142.94,39.33,143,38.11Z"/><path class="cls-66" d="M143.2,41.76l.51-.07a3,3,0,0,1,2.54-.28,1,1,0,0,1,.46.36.92.92,0,0,1-.18.32l-2.62.16A.68.68,0,0,1,143.2,41.76Z"/><path class="cls-67" d="M129.66,25.56l.44-.16a1.34,1.34,0,0,1,.29.45c.27,2,.27,2,3.16,2.38a1,1,0,0,1,.42.32l.09.54a3.59,3.59,0,0,1-.72.11C129.26,29.12,129.71,29.86,129.66,25.56Z"/><path class="cls-68" d="M129.63,14.22a1.12,1.12,0,0,1,.16-.28l.55-.21a.78.78,0,0,1,.37.37c.07,2.45,2.06,1.72,3.41,2a1,1,0,0,1,.44.3c-.05.14-.09.28-.14.42-1.19,0-2.38,0-3.57.05-.94.06-1.21-.33-1.14-1.19A10.77,10.77,0,0,0,129.63,14.22Z"/><path class="cls-69" d="M122.16,42.4l-.44.45h-3.55c.08-1.43.16-2.76.23-4.09l.71-.17a1.1,1.1,0,0,1,.31.43,1.46,1.46,0,0,1,0,.72c-.33,1.3.07,2,1.51,1.94a1.87,1.87,0,0,1,1,.26A.39.39,0,0,1,122.16,42.4Z"/><path class="cls-70" d="M130.12,38.39l.69-.18a1.12,1.12,0,0,1,.33.47,5.81,5.81,0,0,1,0,2.84.73.73,0,0,1-.42.37c-.33,0-.45-.31-.61-.54Z"/><path class="cls-71" d="M130.06,41.35l.37.39c.14.08.18.16.14.24s-.08.12-.13.12v.39C130,42.22,130.06,41.77,130.06,41.35Z"/><path class="cls-5" d="M118,25.09V23.71a27,27,0,0,1,4.67-.11c.75,0,1,.34,1,1,0,1.18,0,2.37,0,3.55-.38.6-1,.25-1.52.4a.33.33,0,0,0-.19-.14,1.36,1.36,0,0,1-.3-.88c.06-1.49-.75-2-2.12-1.93a1.68,1.68,0,0,1-1.39-.44Z"/><path class="cls-5" d="M117.65,12l2.6-.1c1,.07,2.4-.23,3.07.31s.14,2,.23,3a1.2,1.2,0,0,1,0,.19c0,1.72,0,1.72-1.74,1.59a.14.14,0,0,0,0-.18C121.67,14.33,120,14,118,14c-.12,0-.22-.11-.3-.21l-.1,0C117.62,13.18,117.64,12.58,117.65,12Z"/><path class="cls-5" d="M122.16,42.4l-.22-.33a3,3,0,0,1,.09-2.92c-.88,0-2,.39-2.84-.47l-.08-.09c0-.56,0-1.13,0-1.69l4.47,0,.06,4.14c0,.64-.15,1.23-.88,1.44Z"/><path class="cls-5" d="M143.74,38.29c-.06-.12-.12-.24-.19-.36-.06-1.77.24-1.56,1.64-1.57l1.45,0a.36.36,0,0,0,.31.13c1.52.5,1.48.5,1.54,2.1,0,1.06-.33,2.06-.37,3.1l-1.41.05a.49.49,0,0,0-.19-.16A3.47,3.47,0,0,0,143.74,38.29Z"/><path class="cls-5" d="M135.74,36.45l.41.37a4.21,4.21,0,0,0,.32,2.66c0,.73,0,1.46-.05,2.18l-1.76.11-.24-.17a1.58,1.58,0,0,1-.29-.86c0-1.28-.55-2-1.89-1.92a1.54,1.54,0,0,1-1.34-.5l-.09-.11c.11-.59-.28-1.28.36-1.76Z"/><path class="cls-72" d="M130.44,42.1a.87.87,0,0,1,0-.36l.47-.06a3.5,3.5,0,0,1,3.59,0,.33.33,0,0,1,.17.12l-.16.37Z"/><path class="cls-5" d="M134.56,16.44l-.31-.24c-.58-1.89-2.48-1.66-3.8-2.37l-.11-.1c.14-1.4.14-1.4,1.52-1.49a1.39,1.39,0,0,0,.86-.22h1.49c.57.37,1.24.08,1.83.32a3.18,3.18,0,0,1,.12,2.23,5.84,5.84,0,0,0,.18,1.62C135.78,16.72,135.14,16.35,134.56,16.44Z"/><path class="cls-5" d="M145.57,28.07a.55.55,0,0,0-.2-.25c-.38-1.93-2.35-1.79-3.52-2.7l-.12-.07a1.37,1.37,0,0,0,0-.19c0-1.92.23-1.46,1.75-1.59,1-.08,1.81.54,2.78.32.28.09.6.11.77.42a20.54,20.54,0,0,0,.36,3C147.2,28.21,147.2,28.21,145.57,28.07Z"/><path class="cls-73" d="M136.16,14.57,136,12.34h.37c0,.6.07,1.2.1,1.81Z"/><path class="cls-5" d="M145.56,11.55l.38.08a.29.29,0,0,0,.31.14c1.69-.28,1.42,1.23,1.89,2.07l0,1.89a2.28,2.28,0,0,1-.47,1.05l-1.41-.21a.14.14,0,0,0-.07-.17,3,3,0,0,0-3.06-2.6,1.63,1.63,0,0,1-.94-.55.35.35,0,0,0-.16-.18c0-.48.06-1,.08-1.44A6.51,6.51,0,0,1,145.56,11.55Z"/><path class="cls-51" d="M146.25,11.77a.23.23,0,0,1-.31-.14.54.54,0,0,1,.33-.07A.5.5,0,0,1,146.25,11.77Z"/><path class="cls-5" d="M135.33,24c.58.53.19,1.3.45,1.9,0,.88-.07,1.76-.11,2.63l-1.7,0-.1-.1c-.34-2.07-2.18-2.31-3.65-3l-.12-.05c.16-.64-.48-1.59.72-1.82A24.4,24.4,0,0,1,135.33,24Z"/><path class="cls-74" d="M145.56,11.55l-3.42.08,0-.4h3.49A.33.33,0,0,0,145.56,11.55Z"/><path class="cls-75" d="M118.16,25.19c.31,0,.61-.06.92,0,3.13.2,3.2-.64,2.89,3.29l-2.58.08c-.91,0-1.39-.37-1.35-1.31Z"/><path class="cls-75" d="M141.85,25.12a4.23,4.23,0,0,1,1.46.25c2,.42,2,.41,2.06,2.45a7.5,7.5,0,0,1-2.75.27c-.66.05-.88-.35-.86-.93S141.82,25.8,141.85,25.12Z"/><path class="cls-75" d="M117.71,13.82c1.36-.38,2.7,0,4.05,0v3l-3.8.07C117.37,15.91,117.77,14.85,117.71,13.82Z"/><path class="cls-75" d="M142.22,13.25c.55.06,1.11.1,1.66.21,2.38.43,2.37.44,2.34,2.94h-1a1.17,1.17,0,0,0-.88-.22.73.73,0,0,1-.73,0c-1.53-.14-1.55-.14-1.55-1.49C142.1,14.2,142.18,13.72,142.22,13.25Z"/><path class="cls-76" d="M143.65,16.17h.73C144.13,16.5,143.89,16.51,143.65,16.17Z"/><path class="cls-75" d="M143.74,38.29c3.08.11,3.08.11,2.79,3.32l-2.82.08A13.82,13.82,0,0,1,143.74,38.29Z"/><path class="cls-75" d="M130.22,25.45c.37,0,.74,0,1.11,0,2.53.28,2.6.37,2.54,3-.25,0-.5.07-.75.07C130,28.41,130,29.38,130.22,25.45Z"/><path class="cls-75" d="M130.45,13.83a15.58,15.58,0,0,1,1.67,0c1.87.14,2.13.45,2.13,2.41a3.24,3.24,0,0,1-1.48.19C130.31,16.42,130.3,16.41,130.45,13.83Z"/><path class="cls-75" d="M119.19,38.68l2.41,0a4.72,4.72,0,0,1,.72.16,17.06,17.06,0,0,0-.38,3.25c-3.57.34-3.37,0-2.83-2.85C119.14,39,119.16,38.86,119.19,38.68Z"/><path class="cls-75" d="M134.49,41.65a21.53,21.53,0,0,1-3.59,0,16.4,16.4,0,0,1,0-3.36,2.45,2.45,0,0,1,.38,0C134.68,38.29,134.8,38,134.49,41.65Z"/><path class="cls-77" d="M35.33,30.62c-.57,0-1.17.23-1.65-.28A3.11,3.11,0,0,1,35.33,30.62Z"/><path class="cls-78" d="M41.37,63.87c.51.85,0,1.21-.68,1.6a19,19,0,0,1-5.69,2,37,37,0,0,1-13.71,0c-1-.19-1.91-.64-2.88-.9a2.87,2.87,0,0,1-2.18-3.08c0-.94-.09-1.89-.08-2.84,0-1.23.09-1.28,1.32-.8l1.23.47.26.13c.28,2.54,2.26,3.19,4.25,3.76a11.48,11.48,0,0,0,3.14.53,45.66,45.66,0,0,0,9.35-.16,5.8,5.8,0,0,1,1.17-.17c1.41,0,2.68-.68,4.06-.83A.52.52,0,0,1,41.37,63.87Z"/><path class="cls-78" d="M18,49.68c-1.8-.43-2.44-1.73-2.56-3.41a7.47,7.47,0,0,1,0-.94c.05-.92-.46-2.11.16-2.7s1.44.75,2.34.63a.63.63,0,0,1,.4.31A3.82,3.82,0,0,0,21.66,47a4.68,4.68,0,0,1,.53.17A18.13,18.13,0,0,0,27,48h3.65a8.14,8.14,0,0,0,2.65-.21c1-.25,2,0,2.92-.35a6.31,6.31,0,0,1,.86-.2c1.23-.18,2.37-1,3.69-.47.66.88.36,1.56-.46,2.12a2.73,2.73,0,0,1-.48.25,6.39,6.39,0,0,1-.74.24c-.64.19-1.26.43-1.91.62l-.49.13a17.34,17.34,0,0,0-2,.6c-.55.14-1.09.28-1.63.44a7.78,7.78,0,0,1-1.53.15,36.85,36.85,0,0,1-8.06-.46,23.26,23.26,0,0,1-3.74-1.38,1.09,1.09,0,0,0-1.47.1Z"/><path class="cls-78" d="M18.44,58.36c-2-.52-2-.53-2.32-2.46a17.86,17.86,0,0,1-.43-3.34c0-1.31.12-1.35,1.62-1,.34.28.86.11,1.17.48a1.86,1.86,0,0,1,.29.44c.45.8.1,2,1.15,2.5a4.23,4.23,0,0,0,.69.3l.76.23.82.22a27.06,27.06,0,0,0,11,.79A8.29,8.29,0,0,1,35,56.4a20.49,20.49,0,0,0,5.19-1.19,1.85,1.85,0,0,1,.57-.06.71.71,0,0,1,.47.3,4.07,4.07,0,0,1-.07,1.7.48.48,0,0,1-.31.35,5.27,5.27,0,0,0-1.64.54c-.45.21-.89.45-1.35.65s-.81.29-1.22.42a3.76,3.76,0,0,1-.8.15,6.78,6.78,0,0,0-2,.3,4.66,4.66,0,0,1-.91.14,48.61,48.61,0,0,1-8.7-.44,19.86,19.86,0,0,1-4.06-1.39A1.31,1.31,0,0,0,18.44,58.36Z"/><path class="cls-78" d="M40.52,38.38A2.41,2.41,0,0,1,39,40.25a4.79,4.79,0,0,1-1.1,1,7.33,7.33,0,0,1-1.67.74,3.82,3.82,0,0,1-.82.15,8.48,8.48,0,0,1-.87.06c-1,0-2,.45-3,.39-2.48-.1-5,.28-7.43-.35a4.51,4.51,0,0,1-.89-.17c-.36-.1-.72-.23-1.09-.31a12.63,12.63,0,0,1-3-1.13c-.84-.74-.92.45-1.42.56a3.34,3.34,0,0,1-1.37-.54,2.37,2.37,0,0,1-1.06-3.32c.47-.93.95-1.93,2.19-2.08,1.2,2.7,3.6,3.56,6.24,4.06a6.07,6.07,0,0,1,.85.16,4.63,4.63,0,0,0,.89.16,47.51,47.51,0,0,0,8.84-.36,4.19,4.19,0,0,0,1.17-.17,10.11,10.11,0,0,1,1.1-.19c1.27-.11,2.42-.78,3.72-.73Z"/><path class="cls-79" d="M39,31.8A7.38,7.38,0,0,1,42,33.38c1.6,1.43,1.51,2.95-.21,4.18-.4.29-.83.55-1.25.82l-.17-.06a1.13,1.13,0,0,1-.15-.8,1.5,1.5,0,0,1,.22-.5c1.71-1.57,1.64-2.16-.37-3.42-.7-.44-1.68-.56-1.91-1.59C38.35,31.58,38.66,31.57,39,31.8Z"/><path class="cls-80" d="M35.33,30.62l.6.11c0,.65-.53.67-1,.81a42.86,42.86,0,0,1-8.32-.17A1.08,1.08,0,0,1,26,30.6c1.19-.61,2.49-.29,3.73-.35s2.66.05,4,.09C34.2,30.64,34.81,30.36,35.33,30.62Z"/><path class="cls-81" d="M36.59,58.77a1.27,1.27,0,0,1,1.08-.35c.42-.18.92-.16,1.29-.47.68-.27,1.39-.45,2.08-.7l.1-.1a7.62,7.62,0,0,0,2-1.07c.93.54.5,1.45.59,2.21a8.12,8.12,0,0,0,.17,2.41l.06.76c-.12.43-.16,1-.85.79a4.3,4.3,0,0,1-.38-2.9c.07-1.59-.52-1.58-1.57-.79a3.45,3.45,0,0,1-.48.2,8.63,8.63,0,0,0-1.21.32,6.91,6.91,0,0,1-1,.35,1.91,1.91,0,0,1-.79,0A1.74,1.74,0,0,1,36.59,58.77Z"/><path class="cls-82" d="M23.79,39.77A14.18,14.18,0,0,1,19,38.11c-1.23-.57-1.42-1.68-1.47-2.85l.4-.42a.47.47,0,0,1,.49-.12c.47,2.32,2.35,3,4.26,3.63.67.23,1.54.07,2,.88C24.55,39.73,24,39.51,23.79,39.77Z"/><path class="cls-83" d="M18.84,33.34a11.28,11.28,0,0,1,6.1-2.64c.22.26.75,0,.83.53-.86,1.05-2.25.75-3.31,1.29l-.68.2-.41.16-.58.28a2.71,2.71,0,0,1-.37.21c-.24.15-.47.33-.73.46a1,1,0,0,1-.45,0A.68.68,0,0,1,18.84,33.34Z"/><path class="cls-84" d="M41.21,55.45l-.35-.05a.65.65,0,0,1-.07-.74,1.85,1.85,0,0,1,.36-.38,2.92,2.92,0,0,0,1.44-1.42c.15-.91,0-1.83.11-2.74.07-.6-.16-1.42.83-1.56.26,1.66-.13,3.36.31,5,.11.46-.07,1-.81,1A3.55,3.55,0,0,0,41.21,55.45Z"/><path class="cls-85" d="M18.44,58.36a5.35,5.35,0,0,0,.07-.56c0-.85.32-1.1,1.17-.73,1.36.6,2.76,1.09,4.14,1.63a.42.42,0,0,1,.12.32c0,.11,0,.17-.05.17-.93.71-1.76.06-2.61-.21-.69-.21-1.35-.72-2.05,0a.43.43,0,0,1-.47-.1Z"/><path class="cls-86" d="M43.53,48.56c-.59.58-.27,1.31-.35,2-.11,1,.27,2-.3,3-.88-.8-.45-1.87-.55-2.83-.07-.64,0-1.35-1-1.06a2.76,2.76,0,0,1-1,.23.93.93,0,0,1-.64-.45.45.45,0,0,1,.11-.48h0a11.68,11.68,0,0,1,1.85-.68l.44-.19a1,1,0,0,0,.4-.25,1.15,1.15,0,0,1,.37,0h0C43.5,47.45,43.5,47.45,43.53,48.56Z"/><path class="cls-87" d="M42.09,39.52c.52-.4,1-.39,1.08.35.16,1,.23,2,.33,3-.55.66.57,1.88-.76,2.28-.81-1.38-.27-3-.77-4.44A2.19,2.19,0,0,1,42.09,39.52Z"/><path class="cls-88" d="M36.26,41.67c.41-.48,1.11-.33,1.56-.72s.79-.21,1.17-.35l1-.1a.38.38,0,0,1,.57.22.51.51,0,0,1-.17.42,2.62,2.62,0,0,1-.6.37,6.6,6.6,0,0,1-.63.2l-.61.21a6.17,6.17,0,0,1-.61.19c-.21.07-.42.15-.64.2a1.19,1.19,0,0,1-.67-.1A.84.84,0,0,1,36.26,41.67Z"/><path class="cls-77" d="M35.07,31.14c.31-.08.66-.1.86-.41A8.4,8.4,0,0,1,39,31.8a.92.92,0,0,0-.81.36A2.5,2.5,0,0,1,35.07,31.14Z"/><path class="cls-89" d="M43.91,60.7c-.6-.62-.29-1.4-.33-2.11a4.7,4.7,0,0,0-.43-2.51c.64-.51.78.05.8.46A23.12,23.12,0,0,1,43.91,60.7Z"/><path class="cls-90" d="M17.75,41.2a1.57,1.57,0,0,0,.11-.35c.1-1.43.1-1.43,1.35-.63a.61.61,0,0,1,.15.71,1.56,1.56,0,0,1-.85.57.86.86,0,0,1-.5-.09A.49.49,0,0,1,17.75,41.2Z"/><path class="cls-91" d="M18.11,50.81c0-.38-.05-.75-.07-1.13l.12-.13a1,1,0,0,1,.72.29,1.82,1.82,0,0,1,.29.45c.25.76.64,1.51.17,2.32-.4.34-.64.11-.84-.24a.49.49,0,0,1-.16-.19C18.05,51.76,18.45,51.22,18.11,50.81Z"/><path class="cls-92" d="M18,41.41l.42,0a1.39,1.39,0,0,1,.69.83A2,2,0,0,1,19,43.83c-.4.38-.66.17-.88-.21-.05-.12-.11-.24-.17-.36C18,42.64,18,42,18,41.41Z"/><path class="cls-93" d="M43.3,45.56c-.54.58-1.37.64-2,1.12a.39.39,0,0,1-.54,0,.82.82,0,0,1,.07-.85,1.68,1.68,0,0,1,1.92-.52A.63.63,0,0,1,43.3,45.56Z"/><path class="cls-89" d="M43.19,62.23l.78-.77c.59.4.07.76,0,1.13s-.56.18-.77.39h0c-.21.23-.49.19-.76.19a.54.54,0,0,1-.46-.24A.85.85,0,0,1,43.19,62.23Z"/><path class="cls-94" d="M41,46.66a1.45,1.45,0,0,1,.36,0c0,.54-.17,1.1.26,1.56a2.5,2.5,0,0,1-1.85.68c.5-.6,1.55-.9,1.08-2l0-.19Z"/><path class="cls-95" d="M40.51,40.86,40,40.5l2.05-1,.31.69C41.86,40.68,41.37,41.28,40.51,40.86Z"/><path class="cls-96" d="M18.76,58.83l.48-.11a.69.69,0,0,1,.65.48,1.71,1.71,0,0,1-.11,1.4c-.35.42-.66.09-1-.05a.62.62,0,0,1-.1-.22Z"/><path class="cls-97" d="M43.3,45.56l-.63-.1a.28.28,0,0,1,.2-.33c.69-.62-.06-1.64.63-2.26C43.55,43.77,43.87,44.7,43.3,45.56Z"/><path class="cls-98" d="M18.84,33.34l.36.3a1.36,1.36,0,0,1-.2.88.74.74,0,0,1-.59.31h-.5A2.67,2.67,0,0,1,18.84,33.34Z"/><path class="cls-99" d="M18.11,50.81a1.44,1.44,0,0,1,.23,1.37,1.6,1.6,0,0,1-1-.57A.81.81,0,0,0,18.11,50.81Z"/><path class="cls-100" d="M25.76,31.12c-.29-.11-.63-.11-.82-.42l1-.1.47.41A.48.48,0,0,1,25.76,31.12Z"/><path class="cls-101" d="M42,63l.49.06a.19.19,0,0,1-.07.33c-.42,0-.7.32-1,.5a.66.66,0,0,1-.19-.09.65.65,0,0,1-.11-.64.69.69,0,0,1,.31-.32A.52.52,0,0,1,42,63Z"/><path class="cls-102" d="M39,40.6c-.3.4-.75.33-1.17.35a2,2,0,0,1,1.22-.7A.83.83,0,0,1,39,40.6Z"/><path class="cls-103" d="M42.41,63.37a1.3,1.3,0,0,0,.07-.33l.69-.06A.72.72,0,0,1,42.41,63.37Z"/><path class="cls-103" d="M43.17,63c.17-.29.48-.32.77-.39A.67.67,0,0,1,43.17,63Z"/><path class="cls-104" d="M42.44,47.8a.36.36,0,0,1-.4.25Z"/><path class="cls-105" d="M18.8,60.55c.29-.16.5.1.76.14a1,1,0,0,1,.35.38c.52,1.68,2,2,3.4,2.42,1.36.74,3.13,0,4.35,1.21-.34.74-1.09.16-1.56.48a15.81,15.81,0,0,1-6.33-1.78,1.38,1.38,0,0,1-.85-1.15C18.84,61.69,18.83,61.11,18.8,60.55Z"/><path class="cls-106" d="M26.1,65.18c.45-.45,1-.22,1.56-.32,1.13-.84,2.43-.36,3.65-.48a11,11,0,0,0,2.43-.17,3.55,3.55,0,0,1,.65-.12A2.18,2.18,0,0,1,36,64.4.45.45,0,0,1,36,65a21.31,21.31,0,0,1-5.95.5A14.56,14.56,0,0,1,26.1,65.18Z"/><path class="cls-107" d="M41.26,63.1c0,.23,0,.45-.08.68a13.15,13.15,0,0,1-4.1,1.08c-.19-.14-.45-.22-.5-.5a.57.57,0,0,1,.24-.42,2,2,0,0,1,.72-.22,6.66,6.66,0,0,0,1.23-.29C39.61,63.4,40.35,62.61,41.26,63.1Z"/><path class="cls-108" d="M36.67,64.49l.41.37L36,65l0-.45A.49.49,0,0,1,36.67,64.49Z"/><path class="cls-109" d="M26.84,48.52c-1.71-.18-3.47-.12-5-1.08a.83.83,0,0,1,.69-.62,47.06,47.06,0,0,0,8,.43,7.48,7.48,0,0,1,1.57.18,2.21,2.21,0,0,1,1.33.79c-.88.55-1.83.3-2.77.29-.32-.25-.69-.13-1.05-.16A8.89,8.89,0,0,0,26.84,48.52Z"/><path class="cls-110" d="M23.15,50.39a70.18,70.18,0,0,0,8.57.54.34.34,0,0,1-.16.52c-1.2.51-2.54,0-3.75.52A18.87,18.87,0,0,1,23,51.5c-.6-.09-1.48-.1-1.45-1.12A2.46,2.46,0,0,1,23.15,50.39Z"/><path class="cls-111" d="M18.11,43.62l.76.2a1.33,1.33,0,0,1,.35.36,4,4,0,0,0,2.55,2.23.68.68,0,0,1,.27.42c-.07.28-.29.4-.52.53C18.79,46.55,18,45.92,18.11,43.62Z"/><path class="cls-112" d="M23.15,50.39l-1.69.16a2,2,0,0,1-2.59-.38.53.53,0,0,0,0-.25c-.43-.85.33-.77.75-1Z"/><path class="cls-113" d="M41,46.66a1.4,1.4,0,0,0-.15.24c-1.31,0-2.48.73-3.77.83-.2-.16-.45-.13-.68-.2a.49.49,0,0,1-.16-.43.7.7,0,0,1,.33-.33c.46-.17,1-.25,1.4-.42.9-.16,1.75-.53,2.66-.64a.57.57,0,0,1,.44.22Z"/><path class="cls-114" d="M31.72,51.22a.71.71,0,0,0,0-.29l1.59-.19a9.92,9.92,0,0,1,1.54-.15c.45,0,.88.07.73.71a3.63,3.63,0,0,1-3.68.49A.46.46,0,0,1,31.72,51.22Z"/><path class="cls-115" d="M33.38,48.22c-.42-.1-.92,0-1.23-.4.45-.59,1.17-.45,1.75-.68a2.59,2.59,0,0,1,.54-.11,2.56,2.56,0,0,1,1.1.11,2.35,2.35,0,0,1,.85.68A5.54,5.54,0,0,1,33.38,48.22Z"/><path class="cls-116" d="M19.58,49c-.2.36-.76.43-.75,1-.31,0-.48-.19-.67-.37C18.49,48.44,18.49,48.44,19.58,49Z"/><path class="cls-117" d="M26.84,48.52c.94-.66,2-.2,3-.3.15.05.21.11.17.19s-.08.13-.12.13A10.61,10.61,0,0,1,26.84,48.52Z"/><path class="cls-118" d="M37.1,49.67a6.7,6.7,0,0,1,1.9-.61.57.57,0,0,1,.1.52,1.69,1.69,0,0,1-2,.58A.36.36,0,0,1,37.1,49.67Z"/><path class="cls-119" d="M34.78,50.32a5.81,5.81,0,0,1,1.94-.63.39.39,0,0,1,.13.31c0,.12,0,.17-.05.17-.42.68-1.06.55-1.69.46A.31.31,0,0,1,34.78,50.32Z"/><path class="cls-120" d="M34.76,50.79l-1.45,0c.4-.45,1-.31,1.47-.42l0,.17c.11.09.14.17.09.23A.21.21,0,0,1,34.76,50.79Z"/><path class="cls-121" d="M36.39,47.82a1.09,1.09,0,0,1-.81-.34.46.46,0,0,1,.69-.13,1.07,1.07,0,0,1,.79.38Z"/><path class="cls-122" d="M39,49.31a1,1,0,0,0,0-.25l.76-.15a.52.52,0,0,1-.09.34A.41.41,0,0,1,39,49.31Z"/><path class="cls-115" d="M29.87,48.54a1.13,1.13,0,0,0-.05-.32.72.72,0,0,1,.79.29Z"/><path class="cls-123" d="M21.52,47.36l.42-.37c.13-.09.23-.06.31.08l-.42.37A.65.65,0,0,1,21.52,47.36Z"/><path class="cls-124" d="M36.68,50c0-.12,0-.24,0-.35l.38,0a1.66,1.66,0,0,1,0,.32A.25.25,0,0,1,36.68,50Z"/><path class="cls-125" d="M33.35,57a20,20,0,0,1-6.9.19,14.86,14.86,0,0,1-4.94-1,.49.49,0,0,1,.35-.88,68.11,68.11,0,0,0,7.4,1C30.57,56.72,32.14,55.88,33.35,57Z"/><path class="cls-126" d="M40.63,55.45a15.31,15.31,0,0,1-5.47,1.41c-.32-.34-1,.14-1.19-.51,1.08-1.17,2.68-.58,3.92-1.2.43-.11.86-.21,1.28-.34a2.26,2.26,0,0,1,.51-.08,1.41,1.41,0,0,1,.5.12A1,1,0,0,1,40.63,55.45Z"/><path class="cls-127" d="M23.77,59.2c0-.17,0-.33.05-.5a71.38,71.38,0,0,0,9.47.51.4.4,0,0,1-.13.56,1.58,1.58,0,0,1-.6.24c-1.7.15-3.41.05-5.11.08a5.42,5.42,0,0,1-1.21-.15,17.26,17.26,0,0,0-2-.4A1,1,0,0,1,23.77,59.2Z"/><path class="cls-128" d="M21.49,55.43v.33a.35.35,0,0,1-.46.07l-.68-.17a1.84,1.84,0,0,1-.4-.26c-.88-.17-1.42-.57-1.28-1.6a5.94,5.94,0,0,0-.17-1.43l.76.21a1.52,1.52,0,0,1,.32.35c.21.4.32.84.5,1.25a1.35,1.35,0,0,0,.38.44l.32.21c.17.09.33.2.49.3A.65.65,0,0,1,21.49,55.43Z"/><path class="cls-129" d="M34,56.49c.4.09.87-.06,1.16.37L33.35,57c-1.4-.28-2.88.36-4.24-.4A5,5,0,0,1,34,56.49Z"/><path class="cls-130" d="M36.59,58.77c.42.09.91,0,1.25.34,0,.08-.09.15-.13.22a6.51,6.51,0,0,1-1.42.51,2.24,2.24,0,0,1-.77.1,1.22,1.22,0,0,1-.73-.28.58.58,0,0,1-.06-.5c.35-.3.88,0,1.22-.33Z"/><path class="cls-131" d="M41,57.25a3.43,3.43,0,0,1-2,.86c-.11-.08-.15-.16-.11-.24s.08-.11.12-.11A2.08,2.08,0,0,1,41,57.25Z"/><path class="cls-132" d="M36,58.83c-.26.43-.72.37-1.12.42a.66.66,0,0,1-.85-.1A3.36,3.36,0,0,1,36,58.83Z"/><path class="cls-133" d="M39,57.76c0,.11,0,.23,0,.35a1.82,1.82,0,0,1-1.34.31A2.57,2.57,0,0,1,39,57.76Z"/><path class="cls-134" d="M34,59.15l.85.1a2.83,2.83,0,0,0,0,.29,1,1,0,0,1-1.52.05v-.38Z"/><path class="cls-135" d="M40.63,55.45,40.14,55a.68.68,0,0,1,.33-.52.61.61,0,0,1,.42,0l.11.18c0,.23-.1.46-.14.7A.37.37,0,0,1,40.63,55.45Z"/><path class="cls-136" d="M21,55.83l.46-.07c0,.11,0,.22,0,.33Z"/><path class="cls-136" d="M20,55.4l.4.26Z"/><path class="cls-137" d="M18.64,42.07l-.21-.72a.84.84,0,0,1,.78-.45c1.06-.29,1.82.7,2.82.64.58.08,1.1.6,1.74.2a37.59,37.59,0,0,0,8,.36.39.39,0,0,1-.12.55,2.42,2.42,0,0,1-1.23.31c-1.56.1-3.15-.18-4.7.24A15.45,15.45,0,0,1,18.64,42.07Z"/><path class="cls-138" d="M23.79,39.77a1.13,1.13,0,0,1,.88-.42,1.76,1.76,0,0,1,1.51-.26A13.63,13.63,0,0,0,31.39,39a12.29,12.29,0,0,1,4.09-.5c.51.12,1.15,0,1.21.82l-1,.1c-.28.11-.57.13-.85.23a30.74,30.74,0,0,1-10,.32l-.41-.16Z"/><path class="cls-139" d="M36.69,39.36c-.32-.41-.8-.3-1.22-.38,1.38-1.29,3.1-1.44,4.87-1.44a.83.83,0,0,1,0,.78A11.38,11.38,0,0,1,36.69,39.36Z"/><path class="cls-140" d="M22.26,41.7c-1.15.23-2-.6-3.05-.8v-.68l3.05,1.14.13.18Z"/><path class="cls-141" d="M31.76,42.44c0-.11,0-.23,0-.34,1,0,1.93-.5,2.93-.27.08.63-.43.72-.82.93a3.32,3.32,0,0,1-1.4.1A1.1,1.1,0,0,1,31.76,42.44Z"/><path class="cls-142" d="M34,42.46l.68-.63.92-.07c.26.13.49.27.44.62a.78.78,0,0,1-.42.38A1.49,1.49,0,0,1,34,42.46Z"/><path class="cls-140" d="M23.77,41.74a.94.94,0,0,1-1.51,0h0a.75.75,0,0,1,.86-.05Z"/><path class="cls-143" d="M36,42.13l-.41-.37.64-.09.44.35-.18.19A.6.6,0,0,1,36,42.13Z"/><path class="cls-139" d="M34.85,39.69a.89.89,0,0,1,.85-.23A1,1,0,0,1,34.85,39.69Z"/><path class="cls-137" d="M23.12,41.65l-.86.05v-.34A1,1,0,0,1,23.12,41.65Z"/><path class="cls-82" d="M24.45,39.85l.41.16Z"/><path class="cls-75" d="M40.34,37.54c-1.55.72-3.27.88-4.87,1.44a29.58,29.58,0,0,0-4.09.45,17.19,17.19,0,0,1-5.31,0l-1.4-.09a29.33,29.33,0,0,1-4.73-1.62c-1.64-.89-1.73-.95-1.53-2.9l.48-.47c.31-.49.95-.47,1.35-.83.36-.16.75-.22,1.11-.39a2.54,2.54,0,0,1,.47-.14,8.48,8.48,0,0,0,1.78-.4,2.85,2.85,0,0,1,.58-.12c2.56-.07,5.12-.09,7.68,0A20.55,20.55,0,0,1,39,35.16c.78.51,1.63,1,1.5,2.16A1.07,1.07,0,0,0,40.34,37.54Z"/><path class="cls-5" d="M40.49,37.32c-1-1.86-2.91-2.55-4.72-3.27-1.16-.46-2.41-.72-3.62-1.07a33.65,33.65,0,0,0-8.74,0h0c-.59.4-1.36-.13-1.92.38h0c-.42.09-.92.49-1.1-.3a.47.47,0,0,1,.28-.12,3,3,0,0,1,.42-.27.63.63,0,0,1,.32-.12c.14-.09.29-.17.44-.25a21.17,21.17,0,0,1,3.88-1.18l.68-.11,8.63.13,3.16,1c.78.39,1.57.77,2.33,1.19s1.67,1,1.71,2.06S41.35,36.93,40.49,37.32Z"/><path class="cls-75" d="M37.49,64.09l-.68.08c-.75.41-1.64-.14-2.38.34l-.17,0-.17,0a28.14,28.14,0,0,1-9.29-.45c-.6-.1-1.27.07-1.82-.31a5.22,5.22,0,0,1-2.3-.79,1.61,1.61,0,0,1-1-2,1.07,1.07,0,0,1,.95-.12,1.84,1.84,0,0,0,1.56.27,2.26,2.26,0,0,1,1.91.29c.27,1,.75.05,1.11.11a3.1,3.1,0,0,1,1.81.06c.68.64,1.33.34,2-.06,2.22-.47,4.52-.49,6.72-1.08.4-.09.81-.12,1.21-.21l.42-.12a5.89,5.89,0,0,0,.58-.24l.37-.17c.18-.1.37-.17.55-.29a3.39,3.39,0,0,1,.38-.2,4.67,4.67,0,0,0,.57-.33,2.42,2.42,0,0,0,.77-.47.8.8,0,0,1,.24-.13c1.74,1.35,1,3,.59,4.64a.42.42,0,0,0-.17.18,7,7,0,0,1-2.59.67C38.33,64.06,37.83,63.8,37.49,64.09Z"/><path class="cls-5" d="M27.31,61.91a6,6,0,0,0-2.38,0c-.32.19-.61.24-.84-.13a9.75,9.75,0,0,0-2-.29,2,2,0,0,1-1.27-.28L19.7,61a.62.62,0,0,0-.14-.28c0-.58-.08-1.15-.11-1.73.92-.52,1.78-.07,2.65.2a5.81,5.81,0,0,0,2,.23c.66.09,1.36-.21,2,.21l1,0a46.14,46.14,0,0,0,5.64.15,10.64,10.64,0,0,0,2.87-.17l.68-.06c.49-.32,1.12,0,1.61-.31l0-.12.69,0c.44-.18.53,0,.47.43h0c-.2.22-.56.15-.75.39h0c-.21.21-.56.14-.77.36h0c-.3.35-.85,0-1.14.4-1.92.8-4,.77-6,1-.55.07-1.1.09-1.66.14A1,1,0,0,1,27.31,61.91Z"/><path class="cls-5" d="M41.43,62.92c0-1,0-2-.06-3,0-.61.07-1.25-.53-1.68a7.7,7.7,0,0,1,2.31-1.2,29.58,29.58,0,0,1,0,5.15L42,63Z"/><path class="cls-144" d="M39,59.57l-.47-.43a1.18,1.18,0,0,1,.85-.34c.39-.12.49.06.41.41A1,1,0,0,1,39,59.57Z"/><path class="cls-145" d="M39.79,59.21l-.41-.41a1.49,1.49,0,0,1,1.22-.39A.8.8,0,0,1,39.79,59.21Z"/><path class="cls-146" d="M20.42,33.06c.29.37.73.21,1.1.3-.26.37-.67.35-1.05.42a.83.83,0,0,1-1-.12A1.5,1.5,0,0,1,20.42,33.06Z"/><path class="cls-147" d="M19.49,33.66l1,.12c-.45.4-1.09.3-1.58.59a1,1,0,0,1,.31-.73A1.42,1.42,0,0,0,19.49,33.66Z"/><path class="cls-146" d="M21.12,32.67l-.42.27A.4.4,0,0,1,21.12,32.67Z"/><path class="cls-146" d="M21.88,32.3l-.44.25A.41.41,0,0,1,21.88,32.3Z"/><path class="cls-5" d="M40.91,49.4a4.33,4.33,0,0,1,1.81-.71c.29,1.62,0,3.23.16,4.81a2.66,2.66,0,0,1-1.59,1C40.43,52.85,40.67,51.13,40.91,49.4Z"/><path class="cls-148" d="M40.91,49.4c.63,1.66.31,3.39.38,5.09L41,54.7l-.11-.11a1.55,1.55,0,0,1-.44-1.37c.27-1.79-.63-2.12-2.12-1.79a1.39,1.39,0,0,1-.93-.61c.59-1.11,1.74-1,2.73-1.19Z"/><path class="cls-149" d="M24.19,59.53A18,18,0,0,1,19.45,59a1.21,1.21,0,0,0-.21-.24c0-.54,0-1,.81-.71,1.23.44,2.36,1.17,3.72,1.19a.45.45,0,0,0,.28,0c.14,0,.2.07.2.15S24.22,59.53,24.19,59.53Z"/><path class="cls-150" d="M40.13,49.63,37.4,50.79a1,1,0,0,1-.55.44,2.37,2.37,0,0,1-.7.21.57.57,0,0,1-.59-.33,1.14,1.14,0,0,0-.8-.32,1.07,1.07,0,0,0,.06-.3A3.87,3.87,0,0,0,36.68,50l.39,0A3.72,3.72,0,0,0,39,49.31l.67-.06Z"/><path class="cls-151" d="M42.82,47.79s.14.08.14.1-.09.08-.15-.09Z"/><path class="cls-5" d="M42.87,45.13l-.2.33-1.62.47-.11-.09c-.79-.86-.69-2-.9-3a.81.81,0,0,0-.66-.77,1.47,1.47,0,0,1-.4-.24.27.27,0,0,1,0-.39l.62-.14c.19,0,.32-.18.5-.21l.37-.2c.69-.07,1.18-.66,1.89-.65A25.39,25.39,0,0,1,42.87,45.13Z"/><path class="cls-5" d="M39,41.7h.36l.17.13a.61.61,0,0,1-.15.38,3.2,3.2,0,0,1-.53.34l-.37.19-.58.29-.42.19a7.14,7.14,0,0,0-1.09.59c-2.91,1.24-6,1.41-9.09,1.67-.55-.14-1.09-.49-1.69-.14a2.35,2.35,0,0,1-1.42-.28A2,2,0,0,0,22.84,45a2,2,0,0,1-1.38-.47c-.19-.69-.57-.44-1-.18-.56.06-1.11.11-1.49-.43l-.14-.1c-.08-.59-.16-1.17-.23-1.75.66-.48,1.3,0,1.93.11a20.67,20.67,0,0,0,5.14.56c1.55-.19,3.11,0,4.67-.08a7.81,7.81,0,0,0,2.26-.15l1.38,0,1.9,0c.23-.22.57-.11.81-.3l0-.11h.65c.2,0,.34-.16.51-.23l.65-.15A.39.39,0,0,1,39,41.7Z"/><path class="cls-152" d="M39,41.7l-.49-.06a.5.5,0,0,1,.5-.23A2.81,2.81,0,0,0,39,41.7Z"/><path class="cls-152" d="M40.14,41.06l-.5.21Z"/><path class="cls-152" d="M37.86,41.79l-.51.23A.54.54,0,0,1,37.86,41.79Z"/><path class="cls-5" d="M35.56,51.11l.65,0c.2,0,.33-.16.51-.21l.68-.14c.34.05.68.09.86.44a1,1,0,0,1-.13.16,3.42,3.42,0,0,1-.51.33,2.14,2.14,0,0,1-.39.16,6.56,6.56,0,0,0-.81.29c-.14.07-.28.12-.43.18a7.11,7.11,0,0,0-1.12.6c-2.33,1.18-4.84,1.1-7.35,1a5.66,5.66,0,0,1-.58,0l-1.68,0h-.54l-.52,0a3,3,0,0,1-.52,0c-.49-.07-.95-.24-1.43-.35s-.86-.35-1.34-.18a1.63,1.63,0,0,1-1.52-.65l-.13-.12-.39-2.41,2.59.38a21.6,21.6,0,0,0,6.54.93,13.23,13.23,0,0,1,3.77.07A12.15,12.15,0,0,0,35.56,51.11Z"/><path class="cls-75" d="M23,63.77c1.45-.43,2.82.26,4.17.47,2.33.35,4.63.15,6.94.29-.78.56-1.68.29-2.52.32-1.3,0-2.61,0-3.91,0-1.21-.58-2.6-.23-3.84-.73C23.54,64,23.21,64,23,63.77Z"/><path class="cls-75" d="M34.43,64.51c.71-.68,1.58-.27,2.38-.34l-.14.32-.72,0Z"/><path class="cls-75" d="M37.49,64.09c.31-.42.76-.32,1.18-.32A1.34,1.34,0,0,1,37.49,64.09Z"/><path class="cls-75" d="M26.85,45c3.34-.3,6.74-.34,9.87-1.8.34-.27.83,0,1.16-.32h0c.2-.26.55-.2.78-.37h0c.18-.27.54-.2.76-.4h0A1,1,0,0,1,40.53,42c.14,1.28.27,2.55.41,3.82a8.4,8.4,0,0,1-3,.83c-.47.36-1.13-.09-1.58.37h0c-.59.43-1.37-.13-1.94.39l-.13,0-.14,0c-1.14.45-2.4-.2-3.53.37a24.84,24.84,0,0,1-8.37-.74.5.5,0,0,0-.31-.08,1.09,1.09,0,0,1-.07-.3c-.72-.48-1.66-.57-2.2-1.35-.18-.27-.34-.56-.16-.86s.52-.28.84-.21c1.09.21,2,1,3.25.68l.53-.1,1.46.13A2.82,2.82,0,0,1,26.85,45Z"/><path class="cls-75" d="M30.62,47.81c1.1-.8,2.35-.25,3.53-.37-.59.5-1.34.21-2,.38Z"/><path class="cls-153" d="M31.77,51.55A12.87,12.87,0,0,1,28,51.48c1.21-.49,2.48-.17,3.72-.26A1.26,1.26,0,0,1,31.77,51.55Z"/><path class="cls-75" d="M24.1,45c-.29.63-.8.49-1.28.35-1-.28-2-.59-3.05-.91.06,1.49,1.6,1.34,2.1,2.22-1.55-.31-2.88-.84-2.86-2.77l1.64.23c.32,0,.66-.1.89.24L23,44.7A2,2,0,0,1,24.1,45Z"/><path class="cls-75" d="M34.42,47.43c.54-.67,1.28-.32,1.94-.39a1.58,1.58,0,0,1-.09.31l-.69.13Z"/><path class="cls-75" d="M36.34,47c.41-.59,1-.34,1.58-.37C37.47,47.11,36.89,47,36.34,47Z"/><path class="cls-75" d="M27.36,53.72c1.89-.38,3.85-.1,5.72-.65a10.45,10.45,0,0,0,2.11-.7c.31-.37.84-.06,1.17-.38h0c.27-.39.83,0,1.11-.43h0c.23-.2.56-.14.79-.34h0a3.26,3.26,0,0,0,1.38-.48c1.08-.43,1.26-.33,1.29.88,0,1,0,2,0,3a.41.41,0,0,1-.29.07c-.25.17-.6.1-.83.33a.59.59,0,0,1-.32,0c-.34.3-.92,0-1.2.43a9.05,9.05,0,0,1-3,.66,1.61,1.61,0,0,0-1.21.36l-4.89.06a23.46,23.46,0,0,1-7.62-1.12.57.57,0,0,0-.31-.07l-.44-.28a.75.75,0,0,0-.33-.1,2.34,2.34,0,0,1-.43-.33,2.66,2.66,0,0,1-.59-1.95l1.57.4c.4.07.76.42,1.21.17a2.86,2.86,0,0,1,1.58.22.85.85,0,0,0,1.22.13,4.13,4.13,0,0,1,1.85.08C27,53.81,27.18,53.93,27.36,53.72Z"/><path class="cls-75" d="M38.25,55.47c.25-.56.75-.44,1.2-.43C39.13,55.4,38.68,55.39,38.25,55.47Z"/><path class="cls-75" d="M39.77,55a.76.76,0,0,1,.83-.33l-.46.38Z"/><path class="cls-154" d="M32.83,59.9c-1.92-.13-3.87.32-5.76-.28h6A.22.22,0,0,1,32.83,59.9Z"/><path class="cls-144" d="M32.83,59.9l.19-.27a.24.24,0,0,0,.27,0l1.52-.05.77.06C34.72,60.25,33.76,59.9,32.83,59.9Z"/><path class="cls-154" d="M24.19,59.53a2,2,0,0,0-.14-.3c.69.05,1.45-.32,2,.37A4.58,4.58,0,0,1,24.19,59.53Z"/><path class="cls-136" d="M20.74,55.08l.44.28Z"/><path class="cls-136" d="M20,54.65l.43.33A.53.53,0,0,1,20,54.65Z"/><path class="cls-144" d="M37.87,59.23c-.46.51-1,.33-1.61.31A2.13,2.13,0,0,1,37.87,59.23Z"/><path class="cls-155" d="M30.62,42.79a21.79,21.79,0,0,1-4.91,0c1.61-.58,3.28-.14,4.92-.23.12.07.16.13.12.19S30.67,42.79,30.62,42.79Z"/><path class="cls-156" d="M30.62,42.79a2.53,2.53,0,0,0,0-.28l1.13-.07.88.07A2.74,2.74,0,0,1,30.62,42.79Z"/><path class="cls-82" d="M26.07,39.44h5.31A8.25,8.25,0,0,1,26.07,39.44Z"/><path class="cls-152" d="M36.73,42.13a.8.8,0,0,1-.81.3l.11-.3Z"/><path class="cls-146" d="M23.41,33a1,1,0,0,1,1-.42h6.77a1.08,1.08,0,0,1,1,.41C29.24,32.84,26.33,32.87,23.41,33Z"/><path class="cls-146" d="M21.51,33.36c.53-.68,1.25-.38,1.92-.38A3.28,3.28,0,0,1,21.51,33.36Z"/><path class="cls-157" d="M27.31,61.91h1.35c0,.52-.23.79-.76.75A.6.6,0,0,1,27.31,61.91Z"/><path class="cls-158" d="M20.81,61.17a.93.93,0,0,1,1.27.28C21.5,62.06,21.15,61.67,20.81,61.17Z"/><path class="cls-159" d="M24.09,61.74l.84.13c-.15.31-.3.67-.74.47C23.93,62.22,24,62,24.09,61.74Z"/><path class="cls-144" d="M36.33,60.73c.26-.46.71-.41,1.14-.4C37.19,60.74,36.76,60.72,36.33,60.73Z"/><path class="cls-144" d="M37.47,60.32a.73.73,0,0,1,.77-.36A.78.78,0,0,1,37.47,60.32Z"/><path class="cls-144" d="M38.24,60a.71.71,0,0,1,.75-.39A.75.75,0,0,1,38.24,60Z"/><path class="cls-148" d="M36.72,50.93l-.51.21Z"/><path class="cls-152" d="M40.53,42l-1.14.08c0-.13,0-.27,0-.4C39.78,41.72,40.24,41.57,40.53,42Z"/><path class="cls-160" d="M24.1,45c-.42,0-.85.08-1.14-.33.47-.63.85-.49,1.17.15A.57.57,0,0,0,24.1,45Z"/><path class="cls-161" d="M26.85,45a1.29,1.29,0,0,1-1.26,0C26,44.46,26.43,44.44,26.85,45Z"/><path class="cls-152" d="M37.88,42.86a1.22,1.22,0,0,1-1.16.32C37,42.76,37.45,42.82,37.88,42.86Z"/><path class="cls-162" d="M21.54,44.39a1,1,0,0,1-.89-.24C21.06,43.82,21.44,43.59,21.54,44.39Z"/><path class="cls-152" d="M38.65,42.5a.79.79,0,0,1-.78.37A.67.67,0,0,1,38.65,42.5Z"/><path class="cls-152" d="M39.4,42.1a.8.8,0,0,1-.76.4A.66.66,0,0,1,39.4,42.1Z"/><path class="cls-163" d="M22.17,53.27c-.52.74-.92.66-1.21-.17C21.42,52.77,21.79,53,22.17,53.27Z"/><path class="cls-164" d="M25,53.62c-.09.3-.19.6-.57.6s-.59-.35-.65-.73h.37a.33.33,0,0,0,.44,0Z"/><path class="cls-165" d="M27.36,53.72c.06.22.22.5-.19.51s-.3-.3-.35-.53Z"/><path class="cls-148" d="M36.36,52a1.3,1.3,0,0,1-1.17.38C35.47,51.91,35.92,52,36.36,52Z"/><path class="cls-148" d="M37.46,51.57c-.27.41-.69.41-1.11.43C36.58,51.51,37,51.57,37.46,51.57Z"/><path class="cls-148" d="M38.26,51.23a.84.84,0,0,1-.79.34A.69.69,0,0,1,38.26,51.23Z"/><path class="cls-166" d="M24.56,53.52c-.17.28-.31.22-.44,0Z"/><circle class="cls-8" cx="40.12" cy="114.01" r="3.45"/><path class="cls-167" d="M83.27,49a.5.5,0,0,0,0-1,.5.5,0,0,0,0,1Z"/><path class="cls-167" d="M89.2,47.29a.5.5,0,0,0,0-1,.5.5,0,0,0,0,1Z"/><path class="cls-168" d="M86,46.37s-.82,2.48-1.33,4.29,2.4.73,2.4.73"/><path class="cls-5" d="M89,53.74s2.67-1.94,2.92-3.06C92,50.49,94.14,55.13,89,53.74Z"/></svg>