<?xml version="1.0" standalone="no"?>
<!DOCTYPE svg PUBLIC "-//W3C//DTD SVG 20010904//EN"
 "http://www.w3.org/TR/2001/REC-SVG-20010904/DTD/svg10.dtd">
<svg version="1.0" xmlns="http://www.w3.org/2000/svg"
 width="1080.000000pt" height="1080.000000pt" viewBox="0 0 1080.000000 1080.000000"
 preserveAspectRatio="xMidYMid meet" style="background-color:#002244">

<g transform="translate(0.000000,1080.000000) scale(0.100000,-0.100000)"
fill="#ffffff" stroke="none">
<path d="M8250 9850 l0 -370 60 0 60 0 0 370 0 370 -60 0 -60 0 0 -370z"/>
<path d="M9382 9427 l-262 -263 40 -39 40 -40 263 263 262 262 -40 40 -40 40
-263 -263z"/>
<path d="M6930 9645 l-34 -36 262 -262 262 -262 40 40 40 39 -257 258 c-142
142 -263 258 -268 258 -6 0 -26 -16 -45 -35z"/>
<path d="M8215 9081 c-77 -13 -163 -40 -229 -73 -181 -90 -304 -231 -368 -423
-20 -60 -23 -90 -23 -210 0 -120 3 -150 23 -210 43 -128 95 -217 199 -337 45
-51 87 -145 103 -231 l11 -57 372 2 371 3 13 69 c16 87 49 156 108 225 59 69
114 151 144 216 61 130 66 155 66 320 0 133 -3 157 -24 215 -38 103 -57 140
-113 215 -142 188 -432 311 -653 276z m125 -941 c19 -19 20 -33 20 -295 l0
-276 -57 3 -58 3 -3 266 c-2 257 -2 267 19 292 24 32 52 34 79 7z"/>
<path d="M6460 8340 l0 -60 370 0 370 0 0 60 0 60 -370 0 -370 0 0 -60z"/>
<path d="M9420 8340 l0 -60 370 0 370 0 0 60 0 60 -370 0 -370 0 0 -60z"/>
<path d="M7162 7327 l-262 -263 40 -39 40 -40 263 263 262 262 -40 40 -40 40
-263 -263z"/>
<path d="M9155 7550 l-40 -40 263 -263 262 -262 42 43 43 42 -260 260 c-143
143 -262 260 -265 260 -3 0 -24 -18 -45 -40z"/>
<path d="M7894 7498 c3 -13 6 -33 6 -45 0 -14 6 -23 15 -23 9 0 15 -10 15 -26
0 -25 1 -25 53 -20 28 4 126 11 217 16 247 15 495 32 496 34 1 0 4 20 8 44 l6
42 -411 0 -411 0 6 -22z"/>
<path d="M8255 7365 c-176 -12 -321 -23 -322 -24 -2 0 -3 -15 -3 -32 l0 -32
98 6 c53 4 212 14 352 22 312 20 302 18 298 53 -3 25 -6 27 -53 28 -27 1 -194
-8 -370 -21z"/>
<path d="M8455 7295 c-93 -7 -244 -18 -334 -24 -90 -6 -165 -12 -167 -13 -1
-2 22 -31 53 -66 l55 -62 238 0 238 0 61 69 c61 68 78 112 44 110 -10 -1 -94
-8 -188 -14z"/>
<path d="M8070 7112 c0 -11 101 -108 127 -121 12 -6 58 -11 103 -11 45 0 91 5
103 11 26 13 127 110 127 121 0 4 -103 8 -230 8 -126 0 -230 -4 -230 -8z"/>
<path d="M2385 5816 c-362 -189 -660 -347 -662 -353 -5 -13 126 -263 137 -263
5 0 235 117 511 260 276 143 505 260 508 260 4 0 330 -626 726 -1392 396 -765
750 -1436 786 -1492 111 -170 231 -281 355 -329 142 -55 344 -39 581 44 89 32
763 325 774 337 6 6 -57 163 -108 273 -7 14 -38 4 -223 -78 -402 -177 -485
-211 -575 -233 -222 -56 -387 19 -532 241 -26 41 -397 748 -823 1572 -426 823
-779 1497 -785 1496 -5 0 -307 -155 -670 -343z"/>
<path d="M5443 5010 l-151 -80 84 -163 c46 -89 155 -299 242 -467 87 -168 157
-308 155 -312 -2 -3 -189 -102 -416 -218 -226 -117 -416 -217 -422 -222 -6 -6
14 -57 58 -143 l68 -135 77 39 c42 22 234 121 426 220 192 100 352 181 355
181 3 0 152 -285 331 -632 179 -347 356 -686 394 -752 165 -291 338 -461 515
-508 133 -34 325 -15 518 53 88 31 980 432 996 448 7 7 -95 254 -114 275 -5 6
-91 -28 -216 -84 -742 -333 -756 -338 -899 -355 -68 -7 -163 11 -212 42 -89
56 -177 155 -269 303 -46 74 -713 1361 -713 1375 0 6 257 142 570 304 l569
295 -69 130 c-38 72 -75 131 -82 131 -8 0 -264 -130 -571 -288 -306 -159 -561
-286 -566 -283 -5 3 -116 213 -246 466 -131 253 -243 460 -249 460 -6 0 -79
-36 -163 -80z"/>
</g>
</svg>
