<?xml version="1.0" standalone="no"?>
<!DOCTYPE svg PUBLIC "-//W3C//DTD SVG 20010904//EN"
 "http://www.w3.org/TR/2001/REC-SVG-20010904/DTD/svg10.dtd">
<svg version="1.0" xmlns="http://www.w3.org/2000/svg"
 width="1080.000000pt" height="1080.000000pt" viewBox="0 0 1080.000000 1080.000000"
 preserveAspectRatio="xMidYMid meet" style="background-color:#002244">

<g transform="translate(0.000000,1080.000000) scale(0.100000,-0.100000)"
fill="#ffffff" stroke="none">
<path d="M7360 8610 l0 -330 115 0 115 0 0 330 0 330 -115 0 -115 0 0 -330z"/>
<path d="M6332 8477 c-39 -40 -72 -77 -72 -82 0 -13 452 -465 465 -465 6 0 44
34 85 75 l75 75 -235 235 c-129 129 -237 235 -240 235 -3 0 -38 -33 -78 -73z"/>
<path d="M8307 8312 c-125 -125 -227 -232 -227 -237 0 -6 34 -44 75 -85 l75
-75 237 238 238 237 -75 75 c-41 41 -79 75 -85 75 -6 0 -113 -102 -238 -228z"/>
<path d="M7395 8128 c-192 -18 -384 -113 -518 -257 -298 -322 -274 -842 52
-1144 322 -298 842 -274 1144 52 298 322 274 842 -52 1144 -166 153 -389 226
-626 205z"/>
<path d="M5860 7325 l0 -115 330 0 330 0 0 115 0 115 -330 0 -330 0 0 -115z"/>
<path d="M8430 7325 l0 -115 330 0 330 0 0 115 0 115 -330 0 -330 0 0 -115z"/>
<path d="M6480 6495 l-235 -235 75 -75 c41 -41 79 -75 85 -75 13 0 465 452
465 465 0 10 -140 155 -150 155 -3 0 -111 -106 -240 -235z"/>
<path d="M8140 6645 l-75 -75 238 -237 237 -238 75 75 c41 41 75 79 75 85 0
13 -452 465 -465 465 -6 0 -44 -34 -85 -75z"/>
<path d="M2203 6217 c-364 -189 -665 -346 -669 -349 -8 -8 128 -268 139 -268
5 0 236 118 514 261 277 144 508 257 513 253 4 -5 317 -607 695 -1339 721
-1396 749 -1449 801 -1531 82 -128 193 -243 290 -300 164 -96 410 -89 691 19
73 29 730 315 742 323 6 5 -118 289 -126 287 -4 -1 -159 -67 -343 -148 -431
-190 -538 -218 -678 -181 -110 30 -213 116 -299 253 -27 41 -395 746 -820
1566 -424 820 -775 1493 -780 1494 -4 1 -306 -152 -670 -340z"/>
<path d="M7360 6040 l0 -330 115 0 115 0 0 330 0 330 -115 0 -115 0 0 -330z"/>
<path d="M5258 5422 c-81 -42 -148 -80 -148 -85 0 -4 108 -217 241 -473 133
-256 239 -467 238 -468 -2 -2 -193 -101 -423 -220 -231 -119 -422 -219 -424
-221 -4 -3 118 -253 133 -272 1 -2 194 97 429 218 235 122 429 219 431 217 3
-2 163 -310 356 -683 193 -374 379 -724 413 -778 159 -256 306 -387 489 -434
122 -31 325 -5 527 69 113 42 970 433 970 443 1 21 -115 275 -126 275 -5 0
-185 -79 -400 -176 -214 -97 -434 -193 -489 -214 -112 -43 -235 -65 -304 -55
-123 18 -237 110 -356 290 -77 116 -759 1420 -750 1435 3 4 259 139 570 300
311 161 565 295 563 299 -37 80 -135 261 -142 261 -5 0 -259 -129 -565 -287
-305 -159 -562 -288 -569 -288 -7 0 -119 204 -251 460 -131 253 -245 461 -252
462 -8 1 -80 -33 -161 -75z"/>
</g>
</svg>
