<?xml version="1.0" standalone="no"?>
<!DOCTYPE svg PUBLIC "-//W3C//DTD SVG 20010904//EN"
 "http://www.w3.org/TR/2001/REC-SVG-20010904/DTD/svg10.dtd">
<svg version="1.0" xmlns="http://www.w3.org/2000/svg"
 width="1070.000000pt" height="1070.000000pt" viewBox="0 0 1070.000000 1070.000000"
 preserveAspectRatio="xMidYMid meet" style="background-color:#002244">

<g transform="translate(0.000000,1070.000000) scale(0.100000,-0.100000)"
fill="#ffffff" stroke="none">
<path d="M1878 8187 c-548 -194 -1000 -355 -1003 -359 -7 -7 170 -525 184
-540 4 -5 314 101 690 233 379 134 686 238 691 233 4 -5 288 -803 630 -1774
342 -971 642 -1817 667 -1880 168 -430 378 -684 640 -775 97 -34 189 -47 338
-47 159 0 299 20 510 73 225 55 1048 294 1052 305 2 5 -32 135 -75 289 -70
249 -81 280 -98 277 -10 -2 -225 -62 -476 -133 -252 -71 -497 -136 -544 -144
-159 -28 -297 -14 -402 39 -112 57 -226 200 -307 384 -23 53 -365 1014 -761
2135 -395 1120 -723 2037 -728 2037 -6 -1 -460 -159 -1008 -353z"/>
<path d="M5728 6983 c-178 -63 -298 -111 -298 -118 0 -7 101 -300 225 -651
124 -351 222 -641 218 -645 -5 -4 -267 -98 -583 -209 -316 -111 -580 -205
-587 -209 -7 -4 19 -91 84 -276 52 -148 96 -271 98 -273 1 -1 266 90 589 204
341 121 590 203 595 198 5 -5 140 -382 301 -839 327 -929 345 -977 435 -1160
91 -186 172 -304 284 -416 173 -172 327 -225 631 -216 175 5 286 21 465 67
102 26 1306 388 1313 395 4 4 -138 546 -147 561 -4 7 -197 -45 -566 -152 -308
-90 -601 -172 -650 -183 -195 -43 -343 -37 -460 19 -123 59 -248 223 -346 455
-47 112 -613 1705 -607 1710 2 2 349 125 773 274 423 150 771 273 772 275 4 4
-183 535 -190 543 -3 3 -351 -117 -773 -266 -422 -149 -773 -271 -779 -271 -7
0 -106 267 -235 633 -122 347 -225 638 -227 645 -3 6 -13 12 -22 11 -9 0 -150
-48 -313 -106z"/>
</g>
</svg>
